<svg xmlns="http://www.w3.org/2000/svg" xmlns:xlink="http://www.w3.org/1999/xlink" id="Layer_1" x="0px" y="0px" viewBox="0 0 512 512" style="enable-background:new 0 0 512 512;" xml:space="preserve"><desc>Created with Sketch.</desc><g id="Page-1">	<g id="_x30_36---Calm" transform="translate(-1.000000, -1.000000)">		<path id="Shape" d="M13.6,320.1c2.8,1.9,5.8,3.7,8.9,5.1c3.7,1.9,9.9,5,10.3,7.3c0.5,2.9,0.2,5.9-1,8.6c-1.3,2.7-2.6,5.1-3.8,7.1   c-3.1,5.5-8.4,14.8-0.5,21.2c1.8,1.7,5,4.2,7.9,6.4c-2.1,3.7-3.1,8-2.8,12.3c0.5,3.4,2.3,6.4,5.1,8.4c1.9,1.3,3.9,2.5,5.9,3.6   c5.1,2.9,7,4.2,7.7,6.9c0.5,3.4,0.2,6.9-0.9,10.2c-0.5,2.3-1,4.6-1.3,6.8c-0.8,7.8,0.1,15.6,2.8,23c3.8,13.6,16.1,23,30.2,23.3   c2.4,0,4.7-0.3,7-0.7c24.4-5.8,48.4-13,71.9-21.5c19.2,11.3,31.4,45.6,34.5,58.5c0.9,3.8,4.4,6.5,8.3,6.5l214.2-0.6   c2.7,0,5.3-1.3,6.9-3.5c1.6-2.2,2.1-5,1.3-7.6c-2.1-5.8-5-11.2-8.6-16.2c-2-2.9-3.9-6-5.5-9.2c-3.9-7.8-7.1-15.9-9.6-24.3   c-4.9-16.5-8.3-33.4-10.1-50.5c-2.3-19.7-0.5-39.7,5.3-58.8c1.6-4.4-0.6-9.3-5.1-11c-4.4-1.6-9.3,0.6-11,5.1   c-6.7,21.6-8.8,44.3-6.2,66.8c2,18.1,5.6,36,10.7,53.5c2.8,9.2,6.3,18.1,10.6,26.7c1.9,3.9,4.2,7.6,6.6,11.2l0.6,0.9l-193.6,0.5   c-5.7-20.2-15.9-38.9-30-54.5l7.7-2.7c5.7-2,10-3.5,12.2-4.2c36.6-11.6,54.8-28.2,54.3-49.5c-0.1-4.6-3.9-8.3-8.5-8.3h-0.2   c-4.7,0.1-8.4,4-8.3,8.7c0.2,8.8-7,21.6-42.5,32.8c-2.3,0.7-6.8,2.3-12.7,4.4c-6.3,2.2-14.4,5-23.3,8.1h-0.1   c-24,8.8-48.5,16.2-73.4,22.2c-8,1.5-15.7-3.5-17.6-11.4c-1.8-4.9-2.5-10.1-2-15.2c0.2-1.8,0.6-3.6,1-5.4c1.7-5.9,2-12.1,0.7-18.2   c-2.5-7.8-8.2-14.2-15.8-17.5l-1.8-1c0.9-1.9,2-3.6,3.3-5.3c1.4-1.8,2.1-4.1,1.8-6.4s-1.5-4.4-3.4-5.7c-2-1.5-6.9-5.1-10.4-8   c0.4-0.7,0.9-1.6,1.3-2.3c1.3-2.3,2.9-5.1,4.4-8.2c2.7-6,3.5-12.6,2.3-19.1c-2-10.4-12-15.5-19.3-19.2c-2.5-1.2-4.8-2.5-7-4.1   c-1.8-1.2-3.5-2.6-5.1-4.1c0-1.3,1.4-4.4,7.9-12.3c15.3-19.7,28.4-41,39.1-63.5c2-3.5,3.1-7.5,3.3-11.5   c-0.9-8.6-5.4-16.4-12.5-21.3c-3.4-3.2-6.7-6.2-7.1-8.9c0.1-2,0.5-4,1.3-5.8c1.4-3.7,3-7.2,4.6-10.8c3.5-7.2,6.3-14.8,8.3-22.5   l0.9-3.6c1.8-8.5,4.1-16.9,7-25.2c6.7-18.6,17.1-35.6,30.6-50c16.3-17.3,42-29.5,76.5-36.3c26.4-5.8,53.1-9.6,80-11.5   c48.2-2.4,89.7,12.1,134.5,47.1c6,4.7,11.7,9.8,16.9,15.4c3.2,3.4,8.6,3.6,12.1,0.4c3.4-3.2,3.6-8.6,0.4-12.1   C416,62.9,409.7,57.2,403,52C354.8,14.3,309.7-1.3,257.2,1.3c-27.8,1.9-55.4,5.9-82.5,11.8c-38.5,7.7-66.4,21.2-85.5,41.3   C74,70.6,62.4,89.6,54.9,110.3c-3.1,8.9-5.6,18-7.6,27.2l-0.9,3.6c-1.8,6.7-4.3,13.2-7.3,19.4c-1.7,3.9-3.5,7.8-5,11.8   c-2,4.5-2.7,9.4-2.3,14.3c1.7,7.6,6.1,14.4,12.4,19.1c4.2,3.8,6.9,6.5,6.9,8.9c-0.3,1.3-0.8,2.5-1.5,3.7   c-10.2,21.5-22.7,41.9-37.3,60.7c-6.2,7.5-12.7,16.3-11.3,25.1C3,310.9,7.4,316.6,13.6,320.1z"></path>		<path id="Shape_1_" d="M96.3,152.9l0.9-3.7c1.5-7.1,3.4-14.2,5.7-21.1c5.1-14.2,13.1-27.3,23.4-38.4   c11.1-10.4,24.6-17.9,39.3-21.6c3-0.8,5.3-3.2,6-6.2s-0.2-6.2-2.5-8.3c-2.3-2.1-5.5-2.8-8.4-1.8C143,56.4,126.9,65.4,113.9,78   c-11.9,12.8-21.1,27.8-27,44.2c-2.6,7.6-4.7,15.3-6.3,23.1l-0.9,3.7c-0.7,3,0.2,6.1,2.4,8.2c2.2,2.1,5.4,2.9,8.4,2   S95.6,155.9,96.3,152.9L96.3,152.9z"></path>		<circle id="Oval" cx="77.8" cy="180.2" r="8.5"></circle>		<path id="Shape_2_" d="M465.3,95.7c-1.1-4.5-5.5-7.3-10-6.4c-26.2,6.2-51,17.3-72.9,32.9c-10-24.9-24.5-47.7-42.7-67.4   c-1.6-1.6-3.8-2.6-6.1-2.6c-2.3-0.1-4.6,0.9-6.1,2.6c-18,19.9-32.3,42.8-42.2,67.8c-22.1-15.8-47.1-27.1-73.6-33.3   c-4.5-0.9-9,1.9-10,6.4c-4.2,20.6-5.3,41.7-3.2,62.6c-12.3-1.2-24.6-1.2-36.9-0.1c-4.6,0.5-7.9,4.6-7.5,9.2   c0.3,3.1,6.8,75.2,56.3,115.9c35.5,29.1,82.4,33.5,107.4,33.5c6,0,10.6-0.2,13.7-0.5c0.7,0.2,1.4,0.4,2.1,0.4   c0.8,0,1.6-0.2,2.3-0.5c2.7,0.2,7,0.4,12.7,0.4c24.6,0,72.4-4.2,108-33.4c49.5-40.7,56.1-112.8,56.3-115.9c0.4-4.6-3-8.6-7.5-9.2   c-12.3-1.1-24.6-1-36.9,0.2C470.6,137.5,469.5,116.3,465.3,95.7z M451.1,160.8c-25.6,3.8-49.8,14.1-70.1,30.1   c-1.5,1.2-2.8,2.3-4.1,3.6l-0.2,0.2l-0.1,0.1c-0.1,0.1-0.2,0.2-0.3,0.4c-14.4,13.5-25.9,29.7-33.8,47.8c0-3-0.1-6-0.2-9.1   c0.5-23.2,7.1-45.8,19.1-65.6c6.2-9.6,13.9-18.2,22.6-25.5c19.6-15.8,42.2-27.5,66.4-34.3C452.9,125.7,453.2,143.3,451.1,160.8   L451.1,160.8z M333.7,73.7c14.8,17.9,26.6,38.1,34.7,59.9c-16.1,14.4-28.2,32.8-34.9,53.3c-6.7-20.2-18.4-38.4-34.2-52.7   C307.3,112.2,318.9,91.8,333.7,73.7z M216.8,108.2c24.5,6.9,47.3,18.8,67,34.9c8.5,7.2,15.9,15.6,22,25   c12,19.8,18.6,42.4,19.2,65.5c-0.1,3.1-0.2,6.1-0.2,9c-7.9-17.7-19.3-33.6-33.3-46.9c-0.4-0.5-0.9-0.9-1.4-1.3   c-1.3-1.1-2.5-2.4-3.8-3.4c-20.4-16-44.6-26.4-70.3-30.3C213.9,143.3,214.2,125.6,216.8,108.2z M221.2,270.1   c-34.5-28.3-45.7-75.9-49-95.4c19.6-0.6,68.5,1.1,103.1,29.5s45.7,75.9,49,95.4C304.8,300.2,255.8,298.5,221.2,270.1z    M494.8,174.7c-3.2,19.4-14.4,67-49,95.5c-34.9,28.6-83.6,30.1-103.1,29.4c0.6-3.6,1.4-8.1,2.6-13.3c0-0.2,0.1-0.4,0.1-0.5   c6.2-29.9,21.1-57.2,42.8-78.6c0.3-0.2,0.5-0.5,0.8-0.8c0.9-0.7,1.7-1.5,2.6-2.2c19.9-15.1,43.4-24.6,68.2-27.5   C471.4,174.9,483.1,174.3,494.8,174.7z"></path>	</g></g></svg>